<svg version="1.1" xmlns="http://www.w3.org/2000/svg" style="display: block;" viewBox="0 0 2048 1151" width="1366" height="768" preserveAspectRatio="none">
<path transform="translate(0,0)" fill="rgb(82,15,12)" d="M 0 0 L 184.245 0 L 496.775 0 L 811.291 0 L 938.821 0 L 1432.62 0 L 1747.04 0 L 2048 0 L 2048 1151 L 1744.24 1151 L 1430.75 1151 L 1118.21 1151 L 806.545 1151 L 494.333 1151 L 180.231 1151 L 0 1151 L 0 0 z"/>
<path transform="translate(0,0)" fill="rgb(25,10,12)" d="M 0 0 L 184.245 0 L 496.775 0 L 811.291 0 C 834.289 58.6963 841.875 110.95 816.83 171.639 C 803.182 204.711 777.85 230.603 765.239 260.513 C 728.051 348.711 765.201 464.818 797.828 549.671 C 803.757 565.09 811.857 580.626 817.161 595.541 C 835.942 648.349 838.745 700.779 816.601 752.805 C 802.069 786.947 779.44 808.78 765.826 839.788 C 728.863 923.973 763.205 1039.87 794.699 1121.56 C 798.543 1131.42 802.491 1141.23 806.545 1151 L 494.333 1151 L 180.231 1151 L 0 1151 L 0 0 z"/>
<path transform="translate(0,0)" fill="rgb(45,18,15)" d="M 496.775 0 L 811.291 0 C 834.289 58.6963 841.875 110.95 816.83 171.639 C 803.182 204.711 777.85 230.603 765.239 260.513 C 728.051 348.711 765.201 464.818 797.828 549.671 C 803.757 565.09 811.857 580.626 817.161 595.541 C 835.942 648.349 838.745 700.779 816.601 752.805 C 802.069 786.947 779.44 808.78 765.826 839.788 C 728.863 923.973 763.205 1039.87 794.699 1121.56 C 798.543 1131.42 802.491 1141.23 806.545 1151 L 494.333 1151 C 488.656 1139.32 481.822 1121.41 477.243 1108.86 C 447.25 1025.52 415.643 919.004 453.578 833.665 C 465.164 807.603 488.253 784.068 501.027 754.482 C 524.286 705.272 523.188 642.571 501.867 591.564 C 460.742 493.182 410.342 367.879 451.35 261.866 C 461.605 235.354 488.403 206.77 501.189 177.462 C 528.347 115.213 519.822 61.3406 496.775 0 z"/>
<path transform="translate(0,0)" fill="rgb(18,8,10)" d="M 0 0 L 184.245 0 C 206.38 65.2711 215.801 123.554 180.522 187.239 C 169.106 207.846 148.735 234.659 139.699 254.19 C 107.63 323.513 125.599 421.182 149.155 490.947 C 157.21 515.118 166.15 538.984 175.957 562.499 C 179.2 570.112 186.903 582.35 188.998 588.709 C 203.615 632.594 209.518 678.67 197.438 723.885 C 193.946 736.955 187.557 747.674 182.113 759.66 C 171.122 783.855 151.015 805.936 139.849 829.424 C 127.032 856.383 121.747 889.232 122.719 918.848 C 121.804 972.914 136.364 1023.34 151.258 1074.78 C 151.833 1076.77 151.987 1077.46 153.654 1078.77 C 156.387 1081.88 157.463 1090.35 159.209 1095.35 C 164.911 1111.68 176.261 1134.78 180.231 1151 L 0 1151 L 0 0 z"/>
<path transform="translate(0,0)" fill="rgb(15,15,15)" d="M 1747.04 0 L 2048 0 L 2048 1151 L 1744.24 1151 C 1741.85 1142.41 1734.73 1126.91 1731.14 1117.5 C 1699.34 1034.34 1663.76 919.374 1700.06 833.228 C 1712.51 803.681 1737.82 777.426 1751.71 744.057 C 1772.23 697.513 1771.42 636.745 1751.53 589.135 C 1710.29 490.469 1660.17 365.803 1698.71 259.104 C 1709.38 229.563 1738.11 200.171 1751.53 167.274 C 1775 109.713 1769.91 57.1354 1747.04 0 z"/>
<path transform="translate(0,0)" fill="rgb(30,30,30)" d="M 1432.62 0 L 1747.04 0 C 1769.91 57.1354 1775 109.713 1751.53 167.274 C 1738.11 200.171 1709.38 229.563 1698.71 259.104 C 1660.17 365.803 1710.29 490.469 1751.53 589.135 C 1771.42 636.745 1772.23 697.513 1751.71 744.057 C 1737.82 777.426 1712.51 803.681 1700.06 833.228 C 1663.76 919.374 1699.34 1034.34 1731.14 1117.5 C 1734.73 1126.91 1741.85 1142.41 1744.24 1151 L 1430.75 1151 C 1425.99 1140.19 1421.48 1129.27 1417.23 1118.25 C 1385.54 1037.13 1350.79 918.582 1387.03 835.398 C 1399.93 805.79 1424.67 780.217 1438.42 747.248 C 1459.62 696.387 1457.14 645.351 1438.94 593.776 C 1432.9 576.684 1424.37 560.288 1417.84 543.143 C 1386.03 459.661 1350.51 345.292 1386.85 258.915 C 1399.47 228.913 1424.96 202.766 1438.47 169.827 C 1462.9 110.268 1455.49 57.7911 1432.62 0 z"/>
<path transform="translate(0,0)" fill="rgb(65,22,25)" d="M 938.821 0 L 1432.62 0 C 1455.49 57.7911 1462.9 110.268 1438.47 169.827 C 1424.96 202.766 1399.47 228.913 1386.85 258.915 C 1350.51 345.292 1386.03 459.661 1417.84 543.143 C 1424.37 560.288 1432.9 576.684 1438.94 593.776 C 1457.14 645.351 1459.62 696.387 1438.42 747.248 C 1424.67 780.217 1399.93 805.79 1387.03 835.398 C 1350.79 918.582 1385.54 1037.13 1417.23 1118.25 C 1421.48 1129.27 1425.99 1140.19 1430.75 1151 L 1118.21 1151 C 1079.53 1054.77 1029.39 913.923 1089.54 817.768 C 1120.35 768.525 1142.05 746.079 1143.61 682.07 C 1145.07 622.353 1124.46 593.468 1104.74 540.918 C 1075.86 463.947 1048.95 371.048 1068.57 289.059 C 1081.07 239.471 1117.72 210.73 1134.19 161.016 C 1150.88 110.612 1144.17 49.8468 1121.31 2.94301 C 1062.77 4.47332 1002.75 2.19824 944.123 2.76901 C 941.157 2.79789 940.86 1.89712 938.821 0 z"/>
</svg>